<?xml version="1.0" encoding="UTF-8"?>
<svg id="Layer_1" xmlns="http://www.w3.org/2000/svg" viewBox="0 0 386.92 127.47">
  <defs>
    <style>
      .cls-1, .cls-2 {
        fill: #fff;
      }

      .cls-2 {
        stroke: #fff;
        stroke-miterlimit: 10;
        stroke-width: 1.82px;
      }
    </style>
  </defs>
  <g>
    <path class="cls-1" d="M205.89,54.76l-7.23-10.9-6.4,10.9h-9.51l11.47-17.62-11.6-17.49h10.01l7.16,10.84,6.47-10.84h9.51l-11.54,17.49,11.66,17.62h-10.01Z"/>
    <path class="cls-1" d="M234.32,20.69c2.01-1.08,4.3-1.62,6.88-1.62,3,0,5.71.74,8.14,2.22,2.43,1.48,4.35,3.58,5.77,6.31,1.42,2.73,2.12,5.89,2.12,9.48s-.71,6.77-2.12,9.54c-1.42,2.77-3.34,4.91-5.77,6.43s-5.14,2.28-8.14,2.28c-2.58,0-4.85-.53-6.81-1.58-1.97-1.06-3.56-2.39-4.79-3.99v16.22l-8.87,5.52V19.65h8.87v5.07c1.14-1.61,2.71-2.95,4.72-4.03ZM246.87,31.6c-.87-1.54-2.01-2.72-3.42-3.52-1.42-.8-2.95-1.2-4.6-1.2s-3.12.41-4.53,1.24c-1.42.82-2.56,2.02-3.42,3.58-.87,1.56-1.3,3.4-1.3,5.51s.43,3.95,1.3,5.51c.87,1.56,2.01,2.76,3.42,3.58,1.42.82,2.93,1.24,4.53,1.24s3.18-.42,4.6-1.27c1.42-.84,2.56-2.05,3.42-3.61.87-1.56,1.3-3.42,1.3-5.58s-.43-3.94-1.3-5.48Z"/>
    <path class="cls-1" d="M316.15,20.73c1.84-1.06,3.94-1.58,6.31-1.58v9.32h-2.34c-2.79,0-4.89.66-6.31,1.97-1.42,1.31-2.12,3.59-2.12,6.85v17.49h-8.87V19.65h8.87v5.45c1.14-1.86,2.63-3.32,4.47-4.37Z"/>
    <path class="cls-1" d="M338.75,26.94v16.99c0,1.18.29,2.04.86,2.57.57.53,1.53.79,2.88.79h4.12v7.48h-5.58c-7.48,0-11.22-3.63-11.22-10.9v-16.92h-4.18v-7.29h4.18v-8.68h8.94v8.68h7.86v7.29h-7.86Z"/>
    <path class="cls-1" d="M359.47,53.09c-2.7-1.5-4.83-3.62-6.37-6.37-1.54-2.75-2.31-5.92-2.31-9.51s.79-6.76,2.38-9.51c1.58-2.75,3.75-4.87,6.5-6.37,2.75-1.5,5.81-2.25,9.19-2.25s6.44.75,9.19,2.25c2.75,1.5,4.91,3.62,6.5,6.37,1.58,2.75,2.38,5.92,2.38,9.51s-.81,6.76-2.44,9.51c-1.63,2.75-3.83,4.87-6.59,6.37-2.77,1.5-5.86,2.25-9.29,2.25s-6.42-.75-9.13-2.25ZM373.14,46.43c1.42-.78,2.55-1.95,3.39-3.52.84-1.56,1.27-3.47,1.27-5.71,0-3.34-.88-5.9-2.63-7.7-1.75-1.8-3.9-2.69-6.43-2.69s-4.66.9-6.37,2.69c-1.71,1.8-2.57,4.36-2.57,7.7s.83,5.91,2.5,7.7c1.67,1.8,3.77,2.69,6.31,2.69,1.61,0,3.12-.39,4.53-1.17Z"/>
    <path class="cls-1" d="M147.32,81.55c1.48-2.73,3.53-4.84,6.15-6.34,2.62-1.5,5.62-2.25,9-2.25,4.35,0,7.95,1.09,10.81,3.26,2.85,2.18,4.76,5.23,5.74,9.16h-9.57c-.51-1.52-1.36-2.71-2.57-3.58-1.2-.87-2.69-1.3-4.47-1.3-2.54,0-4.54.92-6.02,2.76-1.48,1.84-2.22,4.45-2.22,7.83s.74,5.93,2.22,7.77c1.48,1.84,3.49,2.76,6.02,2.76,3.59,0,5.94-1.61,7.04-4.82h9.57c-.97,3.8-2.89,6.82-5.77,9.06-2.87,2.24-6.47,3.36-10.78,3.36-3.38,0-6.38-.75-9-2.25-2.62-1.5-4.67-3.61-6.15-6.34-1.48-2.73-2.22-5.91-2.22-9.54s.74-6.81,2.22-9.54Z"/>
    <path class="cls-1" d="M238,74.61c4.41-2.45,11.51-1.58,13.87-1.58l-7.57,9.32h-2.35c-2.79,0-4.89.66-6.31,1.97-1.42,1.31-2.12,3.59-2.12,6.85v17.49h-8.87v-35.12h8.87v5.45c1.14-1.86,2.61-3.35,4.47-4.37Z"/>
    <path class="cls-1" d="M250.2,81.55c1.48-2.73,3.53-4.84,6.15-6.34,2.62-1.5,5.62-2.25,9-2.25,4.35,0,7.95,1.09,10.81,3.26,2.85,2.18,4.76,5.23,5.74,9.16h-9.57c-.51-1.52-1.36-2.71-2.57-3.58-1.2-.87-2.69-1.3-4.47-1.3-2.54,0-4.54.92-6.02,2.76-1.48,1.84-2.22,4.45-2.22,7.83s.74,5.93,2.22,7.77c1.48,1.84,3.49,2.76,6.02,2.76,3.59,0,5.94-1.61,7.04-4.82h9.57c-.97,3.8-2.89,6.82-5.77,9.06-2.87,2.24-6.47,3.36-10.78,3.36-3.38,0-6.38-.75-9-2.25-2.62-1.5-4.67-3.61-6.15-6.34-1.48-2.73-2.22-5.91-2.22-9.54s.74-6.81,2.22-9.54Z"/>
    <path class="cls-1" d="M288.26,81.52c1.42-2.75,3.34-4.86,5.77-6.34,2.43-1.48,5.14-2.22,8.15-2.22,2.62,0,4.91.53,6.88,1.58,1.97,1.06,3.54,2.39,4.72,3.99v-5.01h8.94v35.12h-8.94v-5.13c-1.14,1.65-2.72,3.01-4.72,4.09-2.01,1.08-4.32,1.62-6.94,1.62-2.96,0-5.65-.76-8.08-2.28-2.43-1.52-4.35-3.67-5.77-6.43-1.42-2.77-2.12-5.95-2.12-9.54s.71-6.7,2.12-9.44ZM312.51,85.54c-.85-1.54-1.99-2.73-3.42-3.55-1.44-.82-2.98-1.24-4.63-1.24s-3.17.4-4.56,1.2c-1.39.8-2.53,1.98-3.39,3.52-.87,1.54-1.3,3.37-1.3,5.48s.43,3.96,1.3,5.55c.87,1.58,2.01,2.8,3.42,3.64,1.42.85,2.93,1.27,4.53,1.27s3.19-.41,4.63-1.24c1.44-.82,2.58-2.01,3.42-3.55.85-1.54,1.27-3.39,1.27-5.55s-.42-4-1.27-5.55Z"/>
    <g>
      <path class="cls-1" d="M180.03,36.44c0-3.42-.74-6.46-2.19-9.1-1.46-2.63-3.51-4.68-6.15-6.11-2.64-1.43-5.64-2.16-8.97-2.16s-6.53.74-9.19,2.22c-2.67,1.48-4.74,3.59-6.22,6.34-1.48,2.74-2.22,5.94-2.22,9.57s.75,6.76,2.25,9.51c1.5,2.75,3.59,4.88,6.27,6.37,2.62,1.46,5.57,2.1,8.87,2.12.07,0,.15,0,.23,0h16.92v-7.23h-17.15c-2.26,0-4.18-.73-5.73-2.15-1.57-1.44-2.45-3.42-2.67-5.97h25.68c.16-1.01.25-2.15.25-3.42ZM154.17,33.91c.34-2.37,1.26-4.21,2.76-5.55,1.5-1.33,3.35-2,5.55-2,2.32,0,4.29.69,5.89,2.06,1.61,1.37,2.43,3.21,2.47,5.48h-16.67Z"/>
      <path class="cls-1" d="M162.73,55.21h-.23.23Z"/>
    </g>
    <path class="cls-1" d="M218.19,90.39c0-3.43-.73-6.46-2.19-9.1-1.45-2.64-3.51-4.68-6.15-6.12-2.64-1.44-5.63-2.16-8.96-2.16s-6.54.75-9.19,2.22c-2.67,1.48-4.74,3.59-6.21,6.34-1.48,2.75-2.22,5.94-2.22,9.57s.75,6.76,2.25,9.5c1.5,2.75,3.59,4.88,6.27,6.38,2.63,1.47,5.58,2.09,8.88,2.12h17.14v-7.23h-17.14c-2.27,0-4.19-.72-5.74-2.15-1.56-1.44-2.45-3.43-2.66-5.97h25.67c.17-1.01.25-2.15.25-3.42ZM192.33,87.85c.33-2.36,1.25-4.21,2.75-5.54,1.5-1.33,3.36-2,5.55-2,2.32,0,4.28.69,5.89,2.06,1.6,1.37,2.43,3.2,2.47,5.48h-16.67Z"/>
    <g>
      <path class="cls-1" d="M296.44,36.44c0-3.42-.74-6.46-2.19-9.1-1.46-2.63-3.51-4.68-6.15-6.11-2.64-1.43-5.64-2.16-8.97-2.16s-6.53.74-9.19,2.22c-2.67,1.48-4.74,3.59-6.22,6.34-1.48,2.74-2.22,5.94-2.22,9.57s.75,6.76,2.25,9.51c1.5,2.75,3.59,4.88,6.27,6.37,2.62,1.46,5.57,2.1,8.87,2.12.07,0,.15,0,.23,0h16.92v-7.23h-17.15c-2.26,0-4.18-.73-5.73-2.15-1.57-1.44-2.45-3.42-2.67-5.97h25.68c.16-1.01.25-2.15.25-3.42ZM270.57,33.91c.34-2.37,1.26-4.21,2.76-5.55,1.5-1.33,3.35-2,5.55-2,2.32,0,4.29.69,5.89,2.06,1.61,1.37,2.43,3.21,2.47,5.48h-16.67Z"/>
      <path class="cls-1" d="M279.14,55.21h-.23.23Z"/>
    </g>
  </g>
  <path class="cls-2" d="M101.18,55.39c-1.5-1-2.99-2.01-4.5-2.98-.4-.26-.53-.55-.52-1.02,0-1.92.07.37.06-1.55,0-.14-.05-.28-.05-.43v-14.66c0-2.18-.26-4.37-.82-6.47-2.61-9.99-8.75-16.97-18.69-20.27-10.31-3.42-19.82-1.36-27.97,5.81-8.81,7.74-11.78,20.17-7.82,31.36,4.04,11.41,14.99,19.02,27.17,18.9,6.59-.05,13.18-.04,19.77-.05.26,0,.54-.02.8-.04h.05c.74.04,1.5.07,2.24.09,3.61.07,7.24-.13,10.83.28,8.13,1.11,15.14,4.47,20.92,10.31,5.74,5.8,9.05,12.79,10.12,20.86.6,4.59.37,9.13-.89,13.6-2.04,7.15-6.79,11.79-13.6,14.48-3.99,1.57-8.15,2.31-12.4,2.65-4,.32-7.99.29-11.99.28-19.88,0-39.76,0-59.64,0-4.96,0-9.88-.35-14.69-1.65-3.61-.98-7.04-2.38-10.05-4.66-4.35-3.29-6.95-7.69-7.92-13-1.67-9.22-.44-17.98,4.76-25.92,5.17-7.91,12.2-13.39,21.51-15.72,3.66-.92,4.26-.85,6.74-1.03.02,0,.04,0,.05,0l-.48,5.66c-2.42.14-4.78.66-7.08,1.44-14.09,4.78-22.55,18.87-20.2,33.51.86,5.32,4.16,10.03,8.99,12.42,2,.99,4.1,1.66,6.26,2.14,4.21.94,8.51,1.22,12.8,1.23,15.28.04,30.57.05,45.85,0,8.14-.03,16.28.28,24.41-.27,3.96-.27,7.84-.98,11.52-2.51,4.62-1.92,8-5.07,9.6-9.92.71-2.14.95-4.37,1.07-6.61.33-6.07-.89-11.78-4.07-16.98-4.96-8.12-12.09-13.26-21.85-14.69-1.49-.22-2.99-.29-4.49-.3-10.04-.02-20.09,0-30.14-.02-4.02-.14-7.92-.86-11.67-2.36-1.94-.77-3.78-1.78-5.6-2.8-.02,0-.03-.02-.05-.03-1.86-1.31-3.71-2.63-5.36-4.22-5.94-5.74-9.46-12.67-10.34-20.91-1.07-9.93,1.43-18.85,7.94-26.48,6.36-7.46,14.73-11.47,24.94-11.95,5.15-.24,10.32.75,14.99,2.96,7.08,3.33,12.42,8.31,15.98,14.92,2.83,5.27,4.13,11.22,4.09,17.2-.05,7.56-.06,11.28-.06,18.97"/>
  <path class="cls-2" d="M86.44,35.13c-.09,10.39-8.32,18.59-18.58,18.52-10.26-.07-18.51-8.46-18.4-18.71.11-10.1,8.56-18.36,18.68-18.27,10.06.09,18.38,8.5,18.29,18.46ZM81.84,35.19c0-7.63-6.2-13.88-13.78-13.89-7.74,0-13.98,6.18-13.99,13.87,0,7.67,6.3,13.88,14.07,13.86,7.49-.02,13.69-6.29,13.69-13.85Z"/>
  <path class="cls-1" d="M45.62,70.7c-7.2.08-9.85.38-11.65.46l.14-.76v-.04c.44-.03.89-.04,1.33-.04,1.54-.18,3.09-.06,4.63-.08,2.4-.04.3,0,2.75-.13-.73-.48-1.46-.97-2.2-1.46-1.81-1.21-3.6-2.41-5.4-3.62-.12-.08-.25-.16-.36-.25-.08-.05-.18-.08-.27-.08l-.03-1.04h.98s10.08,7.04,10.08,7.04Z"/>
  <path class="cls-1" d="M43.82,70.29l-8.28-5.67s-1.67,2.12-1.65,2.59.13,3.17.13,3.17l1.26.42,8.54-.5Z"/>
  <polygon class="cls-1" points="95.25 48 95.25 52.62 102.7 58 102.63 51.84 95.25 48"/>
</svg>