<?xml version="1.0" encoding="UTF-8"?>
<svg id="Layer_1" xmlns="http://www.w3.org/2000/svg" viewBox="0 0 474.19 168.76">
  <defs>
    <style>
      .cls-1 {
        fill: #06c;
      }
    </style>
  </defs>
  <g>
    <path d="M242.92,74.88l-7.84-11.82-6.94,11.82h-10.31l12.44-19.11-12.58-18.97h10.86l7.77,11.76,7.01-11.76h10.31l-12.51,18.97,12.65,19.11h-10.86Z"/>
    <path d="M273.76,37.93c2.18-1.17,4.66-1.75,7.46-1.75,3.25,0,6.2.8,8.83,2.41,2.64,1.6,4.72,3.88,6.26,6.84,1.54,2.96,2.3,6.38,2.3,10.28s-.77,7.34-2.3,10.35c-1.54,3-3.62,5.33-6.26,6.98s-5.58,2.47-8.83,2.47c-2.8,0-5.26-.57-7.39-1.72-2.13-1.15-3.86-2.59-5.19-4.33v17.59l-9.63,5.99v-56.24h9.63v5.5c1.24-1.74,2.94-3.2,5.12-4.37ZM287.37,49.75c-.94-1.67-2.18-2.94-3.71-3.82-1.54-.87-3.2-1.31-4.98-1.31s-3.38.45-4.92,1.34c-1.54.89-2.77,2.19-3.71,3.88-.94,1.7-1.41,3.69-1.41,5.98s.47,4.29,1.41,5.98c.94,1.7,2.18,2.99,3.71,3.88,1.54.89,3.17,1.34,4.92,1.34s3.45-.46,4.98-1.38c1.54-.92,2.77-2.22,3.71-3.92.94-1.69,1.41-3.71,1.41-6.05s-.47-4.27-1.41-5.95Z"/>
    <path d="M362.51,37.96c1.99-1.15,4.27-1.72,6.84-1.72v10.11h-2.54c-3.03,0-5.31.71-6.84,2.13-1.54,1.42-2.3,3.9-2.3,7.42v18.97h-9.63v-38.09h9.63v5.91c1.24-2.02,2.85-3.6,4.85-4.74Z"/>
    <path d="M387.02,44.7v18.42c0,1.28.31,2.21.93,2.78.62.57,1.66.86,3.13.86h4.47v8.11h-6.05c-8.11,0-12.17-3.94-12.17-11.82v-18.36h-4.54v-7.91h4.54v-9.42h9.69v9.42h8.52v7.91h-8.52Z"/>
    <path d="M409.5,73.06c-2.93-1.63-5.24-3.93-6.91-6.91-1.67-2.98-2.51-6.42-2.51-10.31s.86-7.33,2.58-10.31c1.72-2.98,4.07-5.28,7.05-6.91,2.98-1.63,6.3-2.44,9.97-2.44s6.99.81,9.97,2.44c2.98,1.63,5.33,3.93,7.05,6.91,1.72,2.98,2.58,6.42,2.58,10.31s-.88,7.33-2.65,10.31c-1.77,2.98-4.15,5.28-7.15,6.91-3,1.63-6.36,2.44-10.07,2.44s-6.97-.81-9.9-2.44ZM424.32,65.84c1.54-.85,2.76-2.12,3.68-3.82.92-1.7,1.37-3.76,1.37-6.19,0-3.62-.95-6.4-2.85-8.35-1.9-1.95-4.23-2.92-6.98-2.92s-5.05.97-6.91,2.92c-1.86,1.95-2.78,4.73-2.78,8.35s.9,6.41,2.72,8.35c1.81,1.95,4.09,2.92,6.84,2.92,1.74,0,3.38-.42,4.92-1.27Z"/>
    <path class="cls-1" d="M179.4,103.93c1.6-2.96,3.83-5.25,6.67-6.88,2.84-1.63,6.1-2.44,9.76-2.44,4.72,0,8.63,1.18,11.72,3.54,3.09,2.36,5.17,5.67,6.22,9.93h-10.38c-.55-1.65-1.48-2.94-2.78-3.88-1.31-.94-2.92-1.41-4.85-1.41-2.75,0-4.93,1-6.53,2.99-1.6,1.99-2.41,4.82-2.41,8.49s.8,6.43,2.41,8.42c1.6,1.99,3.78,2.99,6.53,2.99,3.9,0,6.44-1.74,7.63-5.22h10.38c-1.05,4.12-3.14,7.4-6.26,9.83-3.12,2.43-7.01,3.64-11.69,3.64-3.67,0-6.92-.81-9.76-2.44-2.84-1.63-5.06-3.92-6.67-6.88-1.6-2.96-2.41-6.4-2.41-10.35s.8-7.39,2.41-10.35Z"/>
    <path class="cls-1" d="M277.75,96.4c4.79-2.65,12.48-1.72,15.05-1.72l-8.21,10.11h-2.54c-3.02,0-5.31.71-6.84,2.13-1.54,1.42-2.3,3.9-2.3,7.42v18.97h-9.62v-38.09h9.62v5.91c1.24-2.02,2.84-3.63,4.85-4.74Z"/>
    <path class="cls-1" d="M290.98,103.93c1.6-2.96,3.83-5.25,6.67-6.88,2.84-1.63,6.09-2.44,9.76-2.44,4.72,0,8.63,1.18,11.72,3.54,3.09,2.36,5.17,5.67,6.22,9.93h-10.38c-.55-1.65-1.48-2.94-2.78-3.88-1.31-.94-2.92-1.41-4.85-1.41-2.75,0-4.93,1-6.53,2.99-1.6,1.99-2.41,4.82-2.41,8.49s.8,6.43,2.41,8.42c1.6,1.99,3.78,2.99,6.53,2.99,3.9,0,6.44-1.74,7.63-5.22h10.38c-1.06,4.12-3.14,7.4-6.26,9.83-3.12,2.43-7.01,3.64-11.69,3.64-3.67,0-6.92-.81-9.76-2.44-2.84-1.63-5.06-3.92-6.67-6.88-1.6-2.96-2.41-6.4-2.41-10.35s.8-7.39,2.41-10.35Z"/>
    <path class="cls-1" d="M332.26,103.89c1.54-2.98,3.62-5.27,6.26-6.88,2.64-1.6,5.58-2.41,8.83-2.41,2.84,0,5.33.57,7.46,1.72,2.13,1.15,3.84,2.59,5.12,4.33v-5.43h9.69v38.09h-9.69v-5.57c-1.24,1.79-2.95,3.27-5.12,4.43-2.18,1.17-4.69,1.75-7.53,1.75-3.21,0-6.13-.82-8.77-2.47s-4.72-3.98-6.26-6.98c-1.54-3-2.3-6.45-2.3-10.35s.77-7.26,2.3-10.24ZM358.56,108.26c-.92-1.67-2.15-2.96-3.71-3.85-1.56-.89-3.23-1.34-5.02-1.34s-3.44.44-4.95,1.31c-1.51.87-2.74,2.14-3.68,3.82-.94,1.67-1.41,3.66-1.41,5.95s.47,4.3,1.41,6.01c.94,1.72,2.18,3.04,3.71,3.95,1.54.92,3.17,1.38,4.92,1.38s3.46-.45,5.02-1.34c1.56-.89,2.8-2.18,3.71-3.85.92-1.67,1.38-3.68,1.38-6.02s-.46-4.34-1.38-6.01Z"/>
    <g>
      <path d="M207.59,71.96c-3.12,2.36-6.94,3.4-11.48,3.4-3.67,0-6.96-.68-9.87-2.3-2.91-1.63-5.18-3.93-6.81-6.91-1.63-2.98-2.44-6.42-2.44-10.31s.8-7.4,2.41-10.38c1.6-2.98,3.85-5.27,6.74-6.88,2.89-1.6,6.21-2.41,9.97-2.41s6.86.78,9.73,2.34c2.86,1.56,5.09,3.77,6.67,6.63,1.58,2.87,2.37,6.15,2.37,9.87,0,1.38-.09,2.61-.27,3.71h-27.84c.23,2.75,1.19,4.91,2.89,6.46,1.69,1.56,3.78,2.34,6.26,2.34M204.91,52.26c-.05-2.47-.94-4.46-2.68-5.95-1.74-1.49-3.87-2.23-6.39-2.23-2.38,0-4.39.72-6.02,2.17-1.63,1.44-2.62,3.45-2.99,6.01h18.08Z"/>
      <rect x="195.87" y="67.52" width="18.6" height="7.84"/>
    </g>
    <path class="cls-1" d="M256.26,113.52c0-3.72-.79-7-2.37-9.87-1.57-2.86-3.8-5.08-6.67-6.63-2.86-1.56-6.11-2.34-9.72-2.34s-7.09.81-9.97,2.41c-2.89,1.61-5.14,3.9-6.74,6.87-1.61,2.99-2.41,6.44-2.41,10.38s.82,7.33,2.44,10.31c1.63,2.99,3.9,5.29,6.81,6.92,2.85,1.59,6.05,2.27,9.63,2.3h18.59v-7.84h-18.59c-2.46,0-4.54-.78-6.23-2.33-1.69-1.56-2.66-3.72-2.88-6.47h27.84c.18-1.09.28-2.33.28-3.71ZM228.21,110.77c.36-2.56,1.36-4.57,2.99-6.01,1.63-1.45,3.64-2.17,6.02-2.17,2.52,0,4.65.75,6.39,2.24,1.74,1.49,2.63,3.48,2.68,5.95h-18.08Z"/>
    <g>
      <path d="M333.84,71.96c-3.12,2.36-6.94,3.4-11.48,3.4-3.67,0-6.96-.68-9.87-2.3-2.91-1.63-5.18-3.93-6.81-6.91-1.63-2.98-2.44-6.42-2.44-10.31s.8-7.4,2.41-10.38c1.6-2.98,3.85-5.27,6.74-6.88,2.89-1.6,6.21-2.41,9.97-2.41s6.86.78,9.73,2.34c2.86,1.56,5.09,3.77,6.67,6.63,1.58,2.87,2.37,6.15,2.37,9.87,0,1.38-.09,2.61-.27,3.71h-27.84c.23,2.75,1.19,4.91,2.89,6.46,1.69,1.56,3.78,2.34,6.26,2.34M331.16,52.26c-.05-2.47-.94-4.46-2.68-5.95-1.74-1.49-3.87-2.23-6.39-2.23-2.38,0-4.39.72-6.02,2.17-1.63,1.44-2.62,3.45-2.99,6.01h18.08Z"/>
      <rect x="322.12" y="67.52" width="18.6" height="7.84"/>
    </g>
  </g>
  <path class="cls-1" d="M82.83,85.15c-1.84-1.29-3.67-2.61-5.3-4.18-5.85-5.65-9.32-12.48-10.19-20.59-1.05-9.78,1.41-18.57,7.81-26.08,5.51-6.47,12.55-10.3,21.01-11.45,8.07-1.09,15.57.5,22.45,4.85,5.11,3.23,9.07,7.53,11.86,12.91,2.62,5.05,3.81,10.41,3.78,16.09-.05,7.69.01,15.39.02,23.08,0,.24.07.5-.07.73-.23.02-.37-.14-.54-.25-1.48-.98-2.94-1.98-4.43-2.93-.4-.26-.52-.55-.52-1,.01-1.89,0-3.77-.01-5.66.01-.14.03-.27.03-.41,0-4.85,0-9.7,0-14.55,0-1.78-.15-3.55-.56-5.28-2.42-10.36-8.54-17.59-18.64-20.94-10.16-3.37-19.52-1.34-27.55,5.72-8.67,7.62-11.59,19.87-7.7,30.88,3.98,11.24,14.77,18.73,26.76,18.62,6.49-.06,12.98-.04,19.47-.06.27,0,.54-.02.82-.04.75.03,1.49.07,2.24.09,3.56.07,7.12-.12,10.67.28,8,1.09,14.91,4.4,20.6,10.15,5.65,5.71,8.91,12.6,9.96,20.55.6,4.52.38,8.99-.88,13.39-2.01,7.05-6.69,11.62-13.39,14.26-3.93,1.55-8.03,2.28-12.22,2.61-3.93.32-7.87.28-11.8.28-19.58,0-39.15,0-58.73,0-4.88,0-9.73-.35-14.47-1.63-3.56-.96-6.93-2.34-9.9-4.58-4.29-3.24-6.85-7.58-7.8-12.8-1.64-9.07-.43-17.71,4.68-25.52,5.09-7.79,12.02-13.19,21.18-15.48,3.69-.92,7.45-1.15,11.24-1.02,1.94,1.3,3.88,2.61,5.83,3.91.72.48,1.44.96,2.16,1.44-2.42.11-4.78.09-7.14.12-1.52.02-3.04-.1-4.56.08-2.85,0-5.61.55-8.29,1.46-13.97,4.74-22.33,18.78-19.84,33.32.99,5.75,4.16,9.83,9.47,12.24,1.76.8,3.61,1.37,5.5,1.79,4.15.93,8.38,1.2,12.61,1.21,15.05.04,30.1.06,45.15.01,8.01-.02,16.03.28,24.03-.27,3.9-.27,7.72-.96,11.35-2.47,4.55-1.89,7.88-4.98,9.45-9.77.69-2.12.94-4.3,1.06-6.51.32-5.97-.88-11.6-4.01-16.72-4.6-7.53-11.11-12.46-19.88-14.18-1.75-.34-3.51-.56-5.29-.57-10.15-.03-20.31-.02-30.46-.02-3.96-.13-7.8-.85-11.49-2.32-1.93-.77-3.74-1.76-5.54-2.77Z"/>
  <path class="cls-1" d="M121.8,56.06c-.1,11.68-9.36,20.91-20.89,20.82-11.54-.08-20.81-9.52-20.69-21.04.12-11.36,9.62-20.65,21.01-20.54,11.31.1,20.67,9.55,20.57,20.76ZM116.63,56.13c0-8.58-6.97-15.61-15.49-15.62-8.7,0-15.72,6.95-15.73,15.6,0,8.63,7.08,15.61,15.82,15.59,8.42-.02,15.39-7.07,15.4-15.57Z"/>
</svg>